<svg id="svg" version="1.1" xmlns="http://www.w3.org/2000/svg" xmlns:xlink="http://www.w3.org/1999/xlink" width="400" height="95.01187648456057" viewBox="0, 0, 400,95.01187648456057"><g id="svgg"><path id="path0" d="M391.982 18.375 C 391.972 18.398,391.943 18.659,391.918 18.955 C 391.833 19.966,385.711 25.833,384.741 25.833 C 384.391 25.833,384.222 25.915,384.222 26.083 C 384.222 26.372,384.709 26.412,385.178 26.161 C 385.400 26.042,385.500 26.042,385.500 26.161 C 385.500 26.256,385.654 26.333,385.843 26.333 C 386.050 26.333,386.141 26.261,386.073 26.150 C 385.991 26.017,386.053 26.017,386.302 26.150 C 386.802 26.418,387.660 26.379,387.773 26.083 C 387.842 25.904,388.123 25.833,388.773 25.833 C 389.423 25.833,389.704 25.763,389.773 25.583 C 389.832 25.430,390.084 25.333,390.425 25.333 C 390.730 25.333,391.023 25.264,391.075 25.179 C 391.128 25.095,391.395 24.976,391.669 24.916 C 391.943 24.856,392.167 24.738,392.167 24.653 C 392.167 24.569,392.271 24.500,392.399 24.500 C 392.527 24.500,392.674 24.387,392.727 24.250 C 392.780 24.113,392.975 24.000,393.161 24.000 C 393.351 24.000,393.500 23.890,393.500 23.750 C 393.500 23.613,393.645 23.500,393.821 23.500 C 393.998 23.500,394.255 23.387,394.393 23.250 C 394.530 23.113,394.723 23.000,394.821 23.000 C 394.920 23.000,395.000 22.887,395.000 22.750 C 395.000 22.613,395.113 22.500,395.250 22.500 C 395.387 22.500,395.500 22.387,395.500 22.250 C 395.500 22.113,395.613 22.000,395.750 22.000 C 395.891 22.000,396.000 21.851,396.000 21.657 C 396.000 21.453,396.073 21.359,396.181 21.425 C 396.296 21.496,396.341 21.394,396.306 21.143 C 396.269 20.884,396.122 20.732,395.875 20.697 C 395.669 20.667,395.500 20.536,395.500 20.405 C 395.500 20.274,395.387 20.167,395.250 20.167 C 395.113 20.167,395.000 20.100,395.000 20.018 C 395.000 19.936,394.795 19.818,394.543 19.755 C 394.292 19.692,394.042 19.567,393.987 19.478 C 393.932 19.389,393.725 19.304,393.527 19.290 C 393.329 19.275,393.167 19.167,393.167 19.050 C 393.167 18.933,393.035 18.848,392.875 18.862 C 392.216 18.917,391.965 18.831,392.060 18.583 C 392.135 18.389,392.061 18.194,391.982 18.375 M361.518 27.736 C 361.440 27.835,361.339 28.142,361.295 28.417 C 361.221 28.881,360.808 30.449,359.672 34.583 C 358.797 37.771,358.301 39.594,357.836 41.333 C 357.579 42.296,357.215 43.646,357.029 44.333 C 355.904 48.476,355.607 49.576,355.231 51.000 C 355.001 51.871,354.671 53.071,354.497 53.667 C 354.176 54.765,354.031 55.301,353.163 58.583 C 350.903 67.136,350.991 66.879,350.369 66.723 C 350.061 66.646,349.976 66.679,350.034 66.851 C 350.076 66.979,350.255 67.110,350.430 67.144 C 350.606 67.177,350.815 67.317,350.894 67.455 C 351.015 67.665,351.063 67.669,351.184 67.478 C 351.289 67.312,351.329 67.307,351.331 67.458 C 351.332 67.573,351.446 67.667,351.583 67.667 C 351.721 67.667,351.833 67.779,351.833 67.917 C 351.833 68.082,351.999 68.167,352.325 68.167 C 352.609 68.167,352.882 68.283,352.971 68.442 C 353.247 68.935,353.637 68.589,353.597 67.887 C 353.577 67.536,353.656 67.025,353.771 66.750 C 353.887 66.475,354.331 65.275,354.758 64.083 C 355.564 61.832,355.658 61.580,355.994 60.751 C 356.106 60.477,356.369 59.727,356.580 59.084 C 356.947 57.967,357.101 57.564,357.607 56.391 C 357.731 56.103,357.833 55.792,357.833 55.702 C 357.833 55.612,357.945 55.323,358.082 55.061 C 358.219 54.798,358.332 54.461,358.332 54.312 C 358.333 54.163,358.446 53.947,358.583 53.833 C 358.721 53.719,358.833 53.448,358.833 53.230 C 358.833 52.988,358.931 52.833,359.083 52.833 C 359.348 52.833,359.387 52.698,359.338 51.958 C 359.320 51.673,359.408 51.461,359.571 51.398 C 359.749 51.330,359.833 51.084,359.833 50.631 C 359.833 50.107,359.887 49.985,360.083 50.060 C 360.280 50.136,360.333 50.012,360.333 49.474 C 360.333 48.887,360.368 48.821,360.583 49.000 C 360.800 49.179,360.833 49.101,360.833 48.419 C 360.833 47.787,360.883 47.650,361.083 47.727 C 361.247 47.790,361.333 47.722,361.333 47.528 C 361.333 47.366,361.427 47.132,361.542 47.009 C 361.710 46.828,361.706 46.809,361.526 46.912 C 361.365 47.003,361.321 46.951,361.369 46.728 C 361.406 46.557,361.535 46.438,361.655 46.465 C 361.812 46.500,361.851 46.361,361.793 45.966 C 361.733 45.556,361.817 45.281,362.126 44.876 C 362.353 44.577,362.456 44.333,362.353 44.333 C 362.251 44.333,362.167 44.221,362.167 44.083 C 362.167 43.946,362.274 43.833,362.405 43.833 C 362.536 43.833,362.669 43.665,362.701 43.458 C 362.732 43.252,362.855 43.104,362.975 43.129 C 363.094 43.154,363.143 43.097,363.084 43.001 C 363.025 42.906,362.907 42.871,362.822 42.924 C 362.736 42.977,362.667 42.865,362.667 42.677 C 362.667 42.483,362.775 42.333,362.917 42.333 C 363.097 42.333,363.167 42.148,363.167 41.667 C 363.167 41.185,363.236 41.000,363.417 41.000 C 363.597 41.000,363.667 40.815,363.667 40.333 C 363.667 39.852,363.736 39.667,363.917 39.667 C 364.096 39.667,364.167 39.483,364.167 39.018 C 364.167 38.580,364.252 38.336,364.430 38.268 C 364.626 38.193,364.665 38.040,364.583 37.667 C 364.497 37.276,364.531 37.167,364.737 37.167 C 364.933 37.167,365.000 36.996,365.000 36.500 C 365.000 36.019,365.069 35.833,365.250 35.833 C 365.419 35.833,365.500 35.664,365.500 35.310 C 365.500 35.019,365.620 34.699,365.771 34.589 C 365.920 34.480,366.042 34.190,366.042 33.945 C 366.042 33.700,366.126 33.499,366.229 33.499 C 366.332 33.498,366.503 33.310,366.609 33.082 C 366.715 32.853,366.734 32.708,366.651 32.760 C 366.568 32.811,366.500 32.782,366.500 32.694 C 366.500 32.607,366.613 32.492,366.750 32.440 C 366.887 32.387,367.000 32.162,367.000 31.940 C 367.000 31.717,367.117 31.491,367.261 31.436 C 367.745 31.250,367.503 30.260,366.958 30.197 C 366.696 30.167,366.500 30.042,366.500 29.906 C 366.500 29.751,366.323 29.667,366.000 29.667 C 365.667 29.667,365.500 29.583,365.500 29.417 C 365.500 29.279,365.394 29.167,365.264 29.167 C 365.134 29.167,365.003 29.110,364.972 29.042 C 364.880 28.834,363.829 28.333,363.486 28.333 C 363.311 28.333,363.167 28.221,363.167 28.083 C 363.167 27.917,363.000 27.833,362.667 27.833 C 362.392 27.833,362.167 27.771,362.167 27.694 C 362.167 27.493,361.686 27.524,361.518 27.736 M396.500 31.833 C 396.500 31.925,396.387 32.000,396.250 32.000 C 396.113 32.000,396.000 32.112,396.000 32.250 C 396.000 32.417,395.833 32.500,395.500 32.500 C 395.167 32.500,395.000 32.583,395.000 32.750 C 395.000 32.906,394.842 33.000,394.578 33.000 C 394.346 33.000,394.113 33.112,394.060 33.250 C 394.008 33.387,393.785 33.500,393.566 33.500 C 393.322 33.500,393.167 33.597,393.167 33.750 C 393.167 33.887,393.054 34.000,392.917 34.000 C 392.779 34.000,392.667 34.112,392.667 34.250 C 392.667 34.415,392.502 34.500,392.184 34.500 C 391.910 34.500,391.661 34.607,391.606 34.750 C 391.554 34.887,391.407 35.000,391.281 35.000 C 391.043 35.000,389.980 35.482,389.833 35.656 C 389.787 35.711,389.432 35.904,389.044 36.086 C 388.655 36.268,388.336 36.510,388.335 36.625 C 388.334 36.740,388.146 36.833,387.917 36.833 C 387.657 36.833,387.500 36.928,387.500 37.083 C 387.500 37.221,387.406 37.334,387.292 37.334 C 387.128 37.334,387.073 39.697,387.033 48.455 C 386.992 57.611,386.942 59.621,386.753 59.830 C 386.488 60.122,386.500 60.057,386.500 61.250 C 386.500 61.858,386.435 62.153,386.307 62.125 C 386.194 62.101,386.084 62.361,386.042 62.750 C 386.003 63.117,385.865 63.477,385.735 63.550 C 385.606 63.623,385.500 63.796,385.500 63.933 C 385.500 64.070,385.294 64.374,385.042 64.607 C 384.790 64.841,384.613 65.044,384.649 65.058 C 384.780 65.108,384.474 65.833,384.322 65.833 C 384.237 65.833,384.167 65.946,384.167 66.083 C 384.167 66.221,384.088 66.333,383.992 66.333 C 383.896 66.333,383.546 66.596,383.215 66.918 C 382.884 67.239,382.579 67.468,382.537 67.426 C 382.495 67.384,382.359 67.439,382.236 67.550 C 381.661 68.063,381.496 68.167,381.252 68.167 C 381.108 68.167,380.946 68.279,380.894 68.417 C 380.841 68.554,380.693 68.667,380.566 68.667 C 380.438 68.667,380.333 68.779,380.333 68.917 C 380.333 69.073,380.175 69.167,379.911 69.167 C 379.679 69.167,379.446 69.279,379.394 69.417 C 379.341 69.554,379.191 69.667,379.060 69.667 C 378.660 69.667,377.009 70.570,377.004 70.792 C 377.002 70.911,376.787 71.000,376.500 71.000 C 376.167 71.000,376.000 71.083,376.000 71.250 C 376.000 71.406,375.843 71.500,375.583 71.500 C 375.354 71.500,375.167 71.577,375.167 71.671 C 375.167 71.765,374.998 71.915,374.792 72.004 C 374.231 72.246,373.766 72.558,373.617 72.792 C 373.543 72.906,373.300 73.000,373.075 73.000 C 372.850 73.000,372.667 73.067,372.667 73.149 C 372.667 73.230,372.479 73.344,372.250 73.402 C 372.021 73.459,371.833 73.580,371.833 73.670 C 371.833 73.760,371.753 73.833,371.655 73.833 C 371.557 73.833,371.364 73.946,371.226 74.083 C 371.089 74.221,370.832 74.333,370.655 74.333 C 370.478 74.333,370.333 74.446,370.333 74.583 C 370.333 74.738,370.177 74.833,369.925 74.833 C 369.700 74.833,369.452 74.949,369.372 75.091 C 369.293 75.233,369.072 75.361,368.882 75.375 C 368.674 75.391,368.570 75.487,368.619 75.617 C 368.671 75.752,368.570 75.833,368.351 75.833 C 368.158 75.833,368.000 75.908,368.000 76.000 C 368.000 76.092,367.855 76.167,367.679 76.167 C 367.502 76.167,367.251 76.272,367.122 76.402 C 366.993 76.531,366.706 76.664,366.485 76.697 C 366.264 76.731,366.099 76.841,366.118 76.943 C 366.138 77.044,365.927 77.173,365.649 77.229 C 365.369 77.284,365.191 77.404,365.249 77.498 C 365.306 77.591,365.199 77.667,365.010 77.667 C 364.816 77.667,364.667 77.775,364.667 77.917 C 364.667 78.083,364.500 78.167,364.167 78.167 C 363.833 78.167,363.667 78.250,363.667 78.417 C 363.667 78.573,363.509 78.667,363.245 78.667 C 363.013 78.667,362.782 78.773,362.732 78.904 C 362.682 79.034,362.347 79.258,361.987 79.402 C 361.628 79.546,361.333 79.740,361.333 79.832 C 361.333 79.924,361.143 80.000,360.911 80.000 C 360.679 80.000,360.448 80.108,360.398 80.240 C 360.347 80.372,360.087 80.528,359.819 80.586 C 359.552 80.645,359.333 80.758,359.333 80.837 C 359.333 80.915,359.052 81.003,358.708 81.032 C 358.317 81.064,358.099 81.161,358.125 81.292 C 358.156 81.448,357.697 81.503,356.292 81.513 C 352.936 81.537,352.260 81.492,352.117 81.237 C 352.042 81.104,351.732 81.000,351.408 81.000 C 351.008 81.000,350.833 80.924,350.833 80.750 C 350.833 80.583,350.667 80.500,350.333 80.500 C 350.037 80.500,349.833 80.413,349.833 80.285 C 349.833 80.167,349.671 80.059,349.473 80.044 C 349.275 80.029,349.062 79.933,348.998 79.831 C 348.853 79.595,348.035 79.167,347.731 79.167 C 347.604 79.167,347.500 79.054,347.500 78.917 C 347.500 78.750,347.333 78.667,347.000 78.667 C 346.667 78.667,346.500 78.583,346.500 78.417 C 346.500 78.264,346.345 78.167,346.101 78.167 C 345.882 78.167,345.659 78.054,345.606 77.917 C 345.554 77.779,345.404 77.667,345.273 77.667 C 345.142 77.667,344.992 77.554,344.940 77.417 C 344.887 77.279,344.699 77.167,344.523 77.167 C 344.347 77.167,344.159 77.054,344.106 76.917 C 344.054 76.779,343.829 76.667,343.606 76.667 C 343.384 76.667,343.159 76.554,343.106 76.417 C 343.054 76.279,342.858 76.167,342.672 76.167 C 342.486 76.167,342.333 76.092,342.333 76.000 C 342.333 75.908,342.229 75.833,342.101 75.833 C 341.973 75.833,341.826 75.721,341.773 75.583 C 341.720 75.446,341.487 75.333,341.255 75.333 C 340.991 75.333,340.833 75.240,340.833 75.083 C 340.833 74.917,340.667 74.833,340.333 74.833 C 340.000 74.833,339.833 74.750,339.833 74.583 C 339.833 74.443,339.685 74.333,339.495 74.333 C 339.309 74.333,339.111 74.217,339.057 74.074 C 339.002 73.931,338.854 73.854,338.728 73.902 C 338.602 73.950,338.500 73.885,338.500 73.756 C 338.500 73.488,338.069 73.319,337.583 73.398 C 337.400 73.428,337.195 73.370,337.128 73.268 C 337.051 73.153,337.004 73.194,337.003 73.375 C 337.001 73.535,337.075 73.667,337.167 73.667 C 338.060 73.667,330.348 81.241,329.422 81.273 C 329.053 81.286,328.695 81.211,328.628 81.106 C 328.550 80.986,328.504 81.023,328.503 81.208 C 328.500 81.466,328.873 81.599,329.375 81.520 C 329.444 81.509,329.481 81.594,329.458 81.708 C 329.435 81.823,329.513 81.897,329.630 81.873 C 329.747 81.850,329.886 81.943,329.939 82.082 C 329.994 82.225,330.241 82.333,330.513 82.333 C 330.868 82.333,330.965 82.397,330.894 82.583 C 330.821 82.772,330.924 82.833,331.316 82.833 C 331.665 82.833,331.833 82.915,331.833 83.083 C 331.833 83.221,331.914 83.333,332.012 83.333 C 332.110 83.333,332.303 83.446,332.440 83.583 C 332.578 83.721,332.835 83.833,333.012 83.833 C 333.189 83.833,333.333 83.946,333.333 84.083 C 333.333 84.236,333.489 84.333,333.732 84.333 C 333.952 84.333,334.174 84.446,334.227 84.583 C 334.280 84.721,334.471 84.833,334.653 84.833 C 334.834 84.833,335.185 85.021,335.432 85.250 C 335.680 85.479,336.059 85.667,336.274 85.667 C 336.512 85.667,336.667 85.765,336.667 85.917 C 336.667 86.072,336.824 86.167,337.083 86.167 C 337.343 86.167,337.500 86.261,337.500 86.417 C 337.500 86.583,337.667 86.667,338.000 86.667 C 338.333 86.667,338.500 86.750,338.500 86.917 C 338.500 87.054,338.604 87.167,338.732 87.167 C 338.860 87.167,339.008 87.279,339.060 87.417 C 339.113 87.554,339.338 87.667,339.560 87.667 C 339.783 87.667,340.008 87.779,340.060 87.917 C 340.113 88.054,340.309 88.167,340.495 88.167 C 340.681 88.167,340.834 88.223,340.835 88.292 C 340.836 88.360,341.173 88.565,341.585 88.746 C 341.997 88.927,342.333 89.170,342.333 89.287 C 342.333 89.404,342.513 89.500,342.732 89.500 C 342.952 89.500,343.174 89.612,343.227 89.750 C 343.280 89.888,343.513 90.000,343.745 90.000 C 344.009 90.000,344.167 90.094,344.167 90.250 C 344.167 90.467,344.595 90.595,345.054 90.516 C 345.130 90.502,345.144 90.569,345.085 90.664 C 345.027 90.758,345.115 90.887,345.281 90.950 C 345.447 91.013,345.682 91.163,345.804 91.282 C 345.925 91.402,346.131 91.500,346.262 91.500 C 346.393 91.500,346.500 91.575,346.500 91.667 C 346.500 91.758,346.725 91.833,347.000 91.833 C 347.333 91.833,347.500 91.917,347.500 92.083 C 347.500 92.250,347.667 92.333,348.000 92.333 C 348.333 92.333,348.500 92.417,348.500 92.583 C 348.500 92.750,348.667 92.833,349.000 92.833 C 349.298 92.833,349.500 92.920,349.500 93.049 C 349.500 93.180,349.746 93.282,350.123 93.307 C 350.465 93.330,350.808 93.461,350.885 93.598 C 351.087 93.959,359.167 93.929,359.167 93.567 C 359.167 93.406,359.370 93.333,359.821 93.333 C 360.182 93.333,360.589 93.221,360.726 93.083 C 360.864 92.946,361.132 92.833,361.321 92.833 C 361.517 92.833,361.667 92.725,361.667 92.583 C 361.667 92.417,361.833 92.333,362.167 92.333 C 362.500 92.333,362.667 92.250,362.667 92.083 C 362.667 91.946,362.798 91.835,362.958 91.836 C 363.398 91.840,365.000 90.960,365.000 90.715 C 365.000 90.596,365.189 90.500,365.422 90.500 C 365.654 90.500,365.887 90.388,365.940 90.250 C 365.994 90.107,366.243 90.000,366.518 90.000 C 366.835 90.000,367.000 89.915,367.000 89.750 C 367.000 89.593,367.159 89.500,367.427 89.500 C 367.669 89.500,367.808 89.428,367.750 89.333 C 367.693 89.241,367.839 89.093,368.073 89.004 C 368.308 88.915,368.500 88.781,368.500 88.706 C 368.500 88.632,368.668 88.558,368.873 88.543 C 369.077 88.527,369.271 88.436,369.303 88.341 C 369.335 88.245,369.526 88.167,369.727 88.167 C 369.928 88.167,370.224 88.013,370.384 87.826 C 370.544 87.639,370.760 87.538,370.864 87.602 C 370.979 87.673,371.005 87.643,370.932 87.525 C 370.860 87.408,370.980 87.269,371.240 87.170 C 371.475 87.081,371.667 86.931,371.667 86.837 C 371.667 86.744,371.857 86.667,372.089 86.667 C 372.321 86.667,372.554 86.554,372.606 86.417 C 372.659 86.279,372.878 86.167,373.093 86.167 C 373.308 86.167,373.543 86.073,373.617 85.958 C 373.812 85.652,374.436 85.185,374.261 85.476 C 374.172 85.624,374.274 85.604,374.563 85.415 C 374.803 85.257,375.000 85.062,375.000 84.981 C 375.000 84.900,375.184 84.833,375.408 84.833 C 375.633 84.833,375.879 84.723,375.954 84.588 C 376.030 84.453,376.273 84.315,376.495 84.281 C 376.717 84.247,376.928 84.133,376.963 84.026 C 376.999 83.920,377.117 83.833,377.227 83.833 C 377.336 83.833,377.672 83.608,377.973 83.333 C 378.274 83.058,378.703 82.833,378.927 82.833 C 379.150 82.833,379.333 82.737,379.333 82.620 C 379.333 82.443,380.254 81.959,380.485 82.014 C 380.523 82.023,380.620 81.911,380.702 81.765 C 380.783 81.619,381.034 81.500,381.258 81.500 C 381.483 81.500,381.648 81.413,381.625 81.306 C 381.602 81.200,381.733 81.069,381.917 81.015 C 382.434 80.863,383.000 80.442,383.000 80.210 C 383.000 80.088,383.209 80.000,383.500 80.000 C 383.833 80.000,384.000 79.917,384.000 79.750 C 384.000 79.585,384.165 79.500,384.482 79.500 C 384.757 79.500,385.006 79.393,385.060 79.250 C 385.113 79.112,385.275 79.000,385.421 79.000 C 385.589 79.000,385.640 78.923,385.561 78.792 C 385.488 78.670,385.567 78.688,385.750 78.833 C 385.933 78.979,386.012 78.996,385.939 78.875 C 385.854 78.735,385.929 78.667,386.167 78.667 C 386.361 78.667,386.476 78.595,386.422 78.508 C 386.310 78.328,386.903 77.959,387.057 78.113 C 387.113 78.169,387.206 78.091,387.264 77.941 C 387.322 77.790,387.464 77.667,387.581 77.667 C 387.697 77.667,387.884 77.556,387.996 77.421 C 388.108 77.286,388.454 77.128,388.765 77.069 C 389.076 77.011,389.289 76.897,389.239 76.815 C 389.188 76.733,389.237 76.667,389.347 76.667 C 389.457 76.667,389.654 76.535,389.786 76.375 C 389.917 76.215,389.974 76.183,389.912 76.304 C 389.783 76.556,390.485 76.219,390.695 75.929 C 390.756 75.844,390.976 75.749,391.185 75.717 C 391.655 75.645,391.822 75.500,391.435 75.500 C 391.276 75.500,391.194 75.424,391.252 75.331 C 391.309 75.237,391.427 75.205,391.513 75.258 C 391.599 75.311,391.787 75.237,391.930 75.094 C 392.073 74.951,392.298 74.833,392.429 74.833 C 392.560 74.833,392.667 74.754,392.667 74.657 C 392.667 74.560,392.580 74.534,392.474 74.599 C 392.355 74.673,392.327 74.645,392.401 74.526 C 392.466 74.420,392.663 74.333,392.838 74.333 C 393.052 74.333,393.125 74.252,393.060 74.083 C 393.000 73.925,393.063 73.833,393.232 73.833 C 393.379 73.833,393.500 73.721,393.500 73.583 C 393.500 73.446,393.613 73.333,393.750 73.333 C 393.887 73.333,394.000 73.221,394.000 73.083 C 394.000 72.946,394.080 72.833,394.179 72.833 C 394.398 72.833,394.908 72.338,394.939 72.095 C 394.951 71.997,394.971 71.842,394.983 71.750 C 394.995 71.658,395.078 71.696,395.167 71.833 C 395.298 72.037,395.329 72.015,395.331 71.718 C 395.332 71.517,395.410 71.306,395.503 71.248 C 395.596 71.191,395.629 71.075,395.577 70.990 C 395.525 70.906,395.596 70.881,395.735 70.934 C 395.920 71.005,395.969 70.939,395.920 70.682 C 395.873 70.442,395.941 70.329,396.135 70.320 C 396.290 70.313,396.330 70.272,396.224 70.228 C 396.102 70.178,396.177 69.992,396.433 69.717 C 396.714 69.414,396.837 69.081,396.845 68.601 C 396.853 68.110,396.892 68.008,396.983 68.239 C 397.138 68.635,397.254 68.436,397.316 67.667 C 397.342 67.346,397.469 66.965,397.598 66.820 C 397.797 66.597,397.833 63.884,397.833 49.112 L 397.833 31.667 397.167 31.667 C 396.800 31.667,396.500 31.742,396.500 31.833 M364.604 62.214 C 364.330 62.414,364.334 62.429,364.655 62.429 C 364.845 62.429,365.000 62.332,365.000 62.214 C 365.000 62.096,364.977 62.000,364.949 62.000 C 364.920 62.000,364.765 62.096,364.604 62.214 M344.233 63.542 C 344.167 63.656,344.174 63.695,344.248 63.628 C 344.323 63.560,344.481 63.635,344.600 63.794 C 344.796 64.056,344.808 64.048,344.722 63.708 C 344.617 63.292,344.416 63.224,344.233 63.542 M362.109 63.590 C 362.218 63.875,362.526 63.840,362.628 63.531 C 362.665 63.421,362.542 63.333,362.352 63.333 C 362.113 63.333,362.040 63.410,362.109 63.590 M345.227 63.963 C 345.287 64.059,345.241 64.180,345.126 64.231 C 344.986 64.293,345.000 64.317,345.167 64.302 C 345.564 64.268,346.008 64.518,345.890 64.710 C 345.827 64.812,345.862 64.835,345.974 64.766 C 346.233 64.606,346.239 64.616,345.643 64.175 C 345.355 63.962,345.168 63.867,345.227 63.963 M361.035 64.090 C 360.917 64.224,360.681 64.333,360.511 64.333 C 360.341 64.333,360.162 64.437,360.114 64.564 C 360.015 64.822,360.670 64.733,360.848 64.465 C 360.902 64.383,361.109 64.304,361.307 64.290 C 361.505 64.275,361.667 64.166,361.667 64.048 C 361.667 63.762,361.303 63.786,361.035 64.090 M359.202 65.090 C 359.020 65.295,359.048 65.333,359.382 65.333 C 359.623 65.333,359.778 65.235,359.778 65.083 C 359.778 64.768,359.483 64.771,359.202 65.090 M358.333 65.482 C 358.333 65.564,358.446 65.674,358.583 65.727 C 358.736 65.785,358.833 65.727,358.833 65.578 C 358.833 65.443,358.721 65.333,358.583 65.333 C 358.446 65.333,358.333 65.400,358.333 65.482 M357.413 65.840 C 357.253 66.098,357.536 66.351,357.801 66.187 C 357.973 66.080,357.967 66.014,357.773 65.852 C 357.593 65.703,357.499 65.700,357.413 65.840 M356.452 66.497 C 356.379 66.780,356.413 66.803,356.688 66.655 C 356.865 66.561,356.965 66.412,356.911 66.325 C 356.752 66.066,356.545 66.144,356.452 66.497 M355.500 66.927 C 355.500 67.069,355.337 67.167,355.101 67.167 C 354.882 67.167,354.659 67.279,354.606 67.417 C 354.554 67.554,354.391 67.667,354.245 67.667 C 354.100 67.667,354.023 67.735,354.075 67.819 C 354.126 67.903,354.075 68.011,353.959 68.059 C 353.844 68.106,353.908 68.129,354.102 68.108 C 354.518 68.063,355.035 67.594,354.867 67.414 C 354.803 67.345,354.910 67.372,355.107 67.473 C 355.411 67.632,355.477 67.607,355.555 67.308 C 355.611 67.095,355.738 66.992,355.879 67.046 C 356.007 67.095,356.111 67.045,356.111 66.934 C 356.111 66.824,355.974 66.723,355.806 66.710 C 355.637 66.698,355.500 66.795,355.500 66.927 M335.601 72.236 C 335.657 72.381,335.776 72.500,335.865 72.500 C 336.084 72.500,335.947 72.121,335.698 72.038 C 335.576 71.998,335.539 72.074,335.601 72.236 " stroke="none" fill="#048404" fill-rule="evenodd"></path><path id="path1" d="M379.111 10.958 C 379.165 11.172,379.334 11.333,379.504 11.333 C 379.727 11.333,379.779 11.424,379.708 11.693 C 379.637 11.964,379.672 12.023,379.849 11.933 C 379.978 11.868,379.844 12.012,379.552 12.254 C 379.259 12.496,377.564 14.150,375.785 15.930 C 374.006 17.710,372.464 19.167,372.358 19.167 C 372.253 19.167,372.167 19.279,372.167 19.417 C 372.167 19.554,372.049 19.667,371.905 19.667 C 371.672 19.667,371.671 19.694,371.893 19.917 C 372.030 20.054,372.261 20.167,372.405 20.167 C 372.549 20.167,372.668 20.260,372.669 20.375 C 372.670 20.490,372.988 20.733,373.377 20.915 C 373.765 21.098,374.166 21.353,374.266 21.483 C 374.367 21.612,374.527 21.669,374.622 21.611 C 374.718 21.552,374.888 21.615,375.002 21.752 C 375.115 21.888,375.386 22.000,375.604 22.000 C 375.845 22.000,376.000 22.098,376.000 22.250 C 376.000 22.387,376.104 22.500,376.232 22.500 C 376.360 22.500,376.508 22.613,376.560 22.750 C 376.613 22.887,376.846 23.000,377.078 23.000 C 377.342 23.000,377.500 23.094,377.500 23.250 C 377.500 23.403,377.655 23.500,377.899 23.500 C 378.118 23.500,378.341 23.613,378.394 23.750 C 378.446 23.887,378.644 24.000,378.833 24.000 C 379.022 24.000,379.220 24.113,379.273 24.250 C 379.326 24.387,379.515 24.500,379.694 24.500 C 379.873 24.500,379.973 24.575,379.917 24.667 C 379.826 24.813,380.169 24.913,380.546 24.852 C 380.618 24.840,380.719 24.943,380.772 25.082 C 380.839 25.255,381.104 25.333,381.619 25.333 C 382.217 25.333,382.350 25.384,382.273 25.583 C 382.124 25.972,385.103 25.943,385.663 25.550 C 386.476 24.981,391.763 19.569,391.974 19.090 C 392.207 18.562,391.859 18.057,391.388 18.238 C 391.264 18.286,391.220 18.222,391.276 18.075 C 391.339 17.911,391.256 17.833,391.018 17.833 C 390.817 17.833,390.667 17.726,390.667 17.583 C 390.667 17.431,390.511 17.333,390.268 17.333 C 390.048 17.333,389.826 17.221,389.773 17.083 C 389.720 16.946,389.534 16.833,389.359 16.833 C 389.184 16.833,388.947 16.721,388.833 16.583 C 388.719 16.446,388.518 16.333,388.386 16.333 C 388.255 16.333,388.193 16.258,388.250 16.167 C 388.310 16.069,388.141 16.000,387.843 16.000 C 387.501 16.000,387.333 15.918,387.333 15.750 C 387.333 15.594,387.176 15.500,386.917 15.500 C 386.657 15.500,386.500 15.406,386.500 15.250 C 386.500 15.112,386.397 15.000,386.270 15.000 C 386.144 15.000,385.947 14.887,385.833 14.750 C 385.719 14.612,385.517 14.500,385.384 14.500 C 385.252 14.500,385.030 14.387,384.893 14.250 C 384.755 14.112,384.498 14.000,384.321 14.000 C 384.145 14.000,384.000 13.887,384.000 13.750 C 384.000 13.612,383.891 13.500,383.757 13.500 C 383.624 13.500,383.239 13.313,382.901 13.083 C 382.563 12.854,382.110 12.667,381.893 12.667 C 381.668 12.667,381.518 12.578,381.542 12.458 C 381.567 12.333,381.365 12.229,381.039 12.198 C 380.727 12.168,380.538 12.074,380.597 11.978 C 380.654 11.886,380.544 11.770,380.352 11.720 C 380.160 11.670,380.041 11.568,380.088 11.493 C 380.134 11.418,380.002 11.304,379.795 11.238 C 379.587 11.172,379.328 10.998,379.217 10.851 C 379.045 10.621,379.030 10.637,379.111 10.958 M370.875 19.375 C 370.913 19.490,371.086 19.611,371.259 19.644 C 371.530 19.697,371.543 19.669,371.349 19.436 C 371.085 19.117,370.776 19.078,370.875 19.375 M355.716 24.542 C 355.630 24.656,355.250 25.688,354.873 26.833 C 354.496 27.979,353.840 29.892,353.415 31.083 C 352.260 34.325,352.143 34.727,352.430 34.489 C 352.560 34.381,352.667 34.062,352.667 33.780 C 352.667 33.407,352.717 33.317,352.850 33.450 C 353.026 33.626,352.885 34.264,351.932 37.583 C 350.922 41.107,350.320 43.285,349.216 47.417 C 348.897 48.608,348.466 50.221,348.258 51.000 C 347.640 53.308,346.497 57.484,346.089 58.917 C 345.361 61.480,345.131 62.500,345.227 62.749 C 345.346 63.059,344.808 63.091,344.343 62.801 C 344.095 62.646,343.924 62.648,343.570 62.809 C 342.994 63.072,343.221 63.333,344.054 63.364 C 344.426 63.378,344.667 63.471,344.667 63.599 C 344.667 63.715,344.835 63.836,345.042 63.867 C 345.248 63.899,345.398 64.017,345.375 64.129 C 345.352 64.241,345.390 64.324,345.458 64.314 C 345.862 64.250,346.167 64.366,346.167 64.583 C 346.167 64.738,346.323 64.833,346.578 64.833 C 346.875 64.833,346.963 64.903,346.894 65.083 C 346.828 65.254,346.903 65.333,347.131 65.333 C 347.314 65.333,347.508 65.446,347.560 65.583 C 347.613 65.721,347.840 65.833,348.064 65.833 C 348.289 65.833,348.501 65.920,348.536 66.025 C 348.571 66.131,348.771 66.230,348.980 66.245 C 349.189 66.261,349.410 66.350,349.472 66.444 C 349.533 66.538,349.855 66.658,350.188 66.710 C 351.034 66.844,350.839 67.376,353.163 58.583 C 354.031 55.301,354.176 54.765,354.497 53.667 C 354.671 53.071,355.001 51.871,355.231 51.000 C 355.607 49.576,355.904 48.476,357.029 44.333 C 357.215 43.646,357.579 42.296,357.836 41.333 C 358.301 39.594,358.797 37.771,359.672 34.583 C 360.808 30.449,361.221 28.881,361.295 28.417 C 361.386 27.848,361.639 27.463,361.841 27.588 C 361.916 27.634,362.024 27.596,362.082 27.503 C 362.144 27.402,361.976 27.333,361.667 27.333 C 361.360 27.333,361.190 27.265,361.251 27.165 C 361.362 26.986,360.671 26.654,360.454 26.782 C 360.383 26.824,360.346 26.761,360.371 26.641 C 360.396 26.522,360.247 26.399,360.039 26.367 C 359.832 26.335,359.701 26.246,359.749 26.168 C 359.797 26.091,359.611 25.978,359.335 25.917 C 359.059 25.856,358.833 25.738,358.833 25.653 C 358.833 25.569,358.643 25.500,358.411 25.500 C 358.179 25.500,357.946 25.387,357.894 25.250 C 357.841 25.113,357.645 25.000,357.459 25.000 C 357.273 25.000,357.037 24.886,356.935 24.746 C 356.688 24.410,355.915 24.280,355.716 24.542 M363.167 41.500 C 363.167 42.034,363.398 42.172,363.566 41.736 C 363.737 41.290,363.678 41.000,363.417 41.000 C 363.250 41.000,363.167 41.167,363.167 41.500 M362.667 42.639 C 362.667 42.807,362.779 42.944,362.917 42.944 C 363.054 42.944,363.167 42.807,363.167 42.639 C 363.167 42.471,363.054 42.333,362.917 42.333 C 362.779 42.333,362.667 42.471,362.667 42.639 M362.167 44.083 C 362.167 44.221,362.279 44.333,362.417 44.333 C 362.554 44.333,362.667 44.221,362.667 44.083 C 362.667 43.946,362.554 43.833,362.417 43.833 C 362.279 43.833,362.167 43.946,362.167 44.083 M361.843 45.239 C 361.673 45.443,361.663 45.563,361.802 45.702 C 361.940 45.840,362.016 45.818,362.094 45.617 C 362.264 45.173,362.101 44.927,361.843 45.239 M361.389 46.595 C 361.334 46.738,361.358 46.924,361.442 47.008 C 361.534 47.101,361.608 46.998,361.629 46.747 C 361.667 46.281,361.541 46.200,361.389 46.595 M321.240 67.411 C 320.968 67.617,320.960 67.657,321.188 67.661 C 321.337 67.664,321.553 67.554,321.667 67.417 C 321.933 67.096,321.661 67.093,321.240 67.411 M324.028 67.445 C 323.837 67.590,323.818 67.658,323.968 67.661 C 324.088 67.664,323.719 68.098,323.148 68.625 C 321.528 70.120,318.000 73.691,318.000 73.835 C 318.000 73.906,317.886 74.008,317.746 74.062 C 317.244 74.255,317.692 75.323,318.278 75.331 C 318.385 75.332,318.497 75.406,318.528 75.495 C 318.558 75.584,318.767 75.685,318.991 75.719 C 319.216 75.753,319.428 75.867,319.463 75.974 C 319.499 76.080,319.626 76.167,319.746 76.167 C 319.866 76.167,320.008 76.279,320.060 76.417 C 320.113 76.554,320.346 76.667,320.578 76.667 C 320.842 76.667,321.000 76.760,321.000 76.917 C 321.000 77.069,321.155 77.167,321.399 77.167 C 321.618 77.167,321.841 77.279,321.894 77.417 C 321.946 77.554,322.179 77.667,322.411 77.667 C 322.675 77.667,322.833 77.760,322.833 77.917 C 322.833 78.054,322.946 78.167,323.083 78.167 C 323.221 78.167,323.333 78.236,323.333 78.320 C 323.333 78.404,323.558 78.523,323.833 78.583 C 324.108 78.644,324.333 78.762,324.333 78.847 C 324.333 78.931,324.521 79.000,324.750 79.000 C 325.009 79.000,325.167 79.094,325.167 79.250 C 325.167 79.417,325.333 79.500,325.667 79.500 C 326.000 79.500,326.167 79.583,326.167 79.750 C 326.167 79.891,326.316 80.000,326.510 80.000 C 326.699 80.000,326.807 80.075,326.750 80.167 C 326.693 80.258,326.764 80.333,326.907 80.333 C 327.050 80.333,327.317 80.483,327.500 80.667 C 327.683 80.850,328.021 81.000,328.250 81.000 C 328.479 81.000,328.667 81.069,328.667 81.153 C 328.667 81.238,328.988 81.294,329.381 81.278 C 330.345 81.240,338.092 73.667,337.167 73.667 C 337.075 73.667,337.001 73.535,337.003 73.375 C 337.004 73.210,337.058 73.156,337.128 73.250 C 337.195 73.342,337.356 73.440,337.487 73.468 C 337.682 73.510,337.686 73.474,337.508 73.259 C 337.389 73.117,337.114 73.000,336.896 73.000 C 336.655 73.000,336.500 72.902,336.500 72.750 C 336.500 72.597,336.345 72.500,336.101 72.500 C 335.882 72.500,335.659 72.387,335.606 72.250 C 335.554 72.112,335.396 72.000,335.255 72.000 C 335.115 72.000,335.019 71.910,335.042 71.799 C 335.081 71.608,334.993 71.569,334.417 71.521 C 334.279 71.509,334.167 71.387,334.167 71.250 C 334.167 71.083,334.000 71.000,333.667 71.000 C 333.333 71.000,333.167 70.917,333.167 70.750 C 333.167 70.612,333.054 70.500,332.917 70.500 C 332.779 70.500,332.667 70.433,332.667 70.351 C 332.667 70.270,332.479 70.156,332.250 70.098 C 332.021 70.041,331.833 69.920,331.833 69.830 C 331.833 69.740,331.608 69.667,331.333 69.667 C 331.000 69.667,330.833 69.583,330.833 69.417 C 330.833 69.264,330.678 69.167,330.434 69.167 C 330.215 69.167,329.992 69.054,329.940 68.917 C 329.887 68.779,329.687 68.667,329.495 68.667 C 329.304 68.667,329.188 68.600,329.239 68.517 C 329.352 68.336,328.949 68.167,328.403 68.167 C 328.156 68.167,328.000 68.070,328.000 67.917 C 328.000 67.732,327.807 67.667,327.264 67.667 C 326.859 67.667,326.501 67.588,326.469 67.491 C 326.384 67.237,325.790 67.178,325.510 67.396 C 325.331 67.536,325.299 67.534,325.384 67.392 C 325.544 67.124,324.389 67.170,324.028 67.445 M313.611 71.778 C 313.434 71.955,313.483 72.697,313.664 72.585 C 313.754 72.529,313.813 72.300,313.794 72.075 C 313.756 71.616,313.763 71.626,313.611 71.778 M316.901 74.371 C 316.925 74.488,317.069 74.608,317.222 74.637 C 317.420 74.676,317.469 74.612,317.393 74.415 C 317.317 74.217,317.252 74.195,317.164 74.338 C 317.073 74.485,317.016 74.487,316.949 74.348 C 316.892 74.229,316.874 74.237,316.901 74.371 " stroke="none" fill="#04a174" fill-rule="evenodd"></path><path id="path2" d="M350.787 0.102 C 350.728 0.161,350.438 0.237,350.141 0.272 C 349.845 0.306,349.561 0.398,349.510 0.475 C 349.458 0.552,349.210 0.666,348.958 0.728 C 348.706 0.789,348.500 0.913,348.500 1.003 C 348.500 1.093,348.275 1.167,348.000 1.167 C 347.667 1.167,347.500 1.250,347.500 1.417 C 347.500 1.572,347.343 1.667,347.083 1.667 C 346.854 1.667,346.667 1.762,346.667 1.879 C 346.667 1.996,346.330 2.240,345.918 2.421 C 345.507 2.602,345.169 2.844,345.168 2.958 C 345.167 3.073,345.023 3.167,344.847 3.167 C 344.504 3.167,343.453 3.668,343.361 3.875 C 343.331 3.944,343.197 4.000,343.064 4.000 C 342.931 4.000,342.780 4.113,342.727 4.250 C 342.674 4.388,342.452 4.500,342.232 4.500 C 341.989 4.500,341.833 4.597,341.833 4.750 C 341.833 4.917,341.667 5.000,341.333 5.000 C 341.000 5.000,340.833 5.083,340.833 5.250 C 340.833 5.390,340.685 5.500,340.495 5.500 C 340.309 5.500,340.113 5.612,340.060 5.750 C 340.008 5.888,339.818 6.000,339.639 6.000 C 339.460 6.000,339.360 6.076,339.417 6.168 C 339.474 6.260,339.385 6.379,339.219 6.431 C 339.053 6.483,338.705 6.640,338.447 6.779 C 338.188 6.919,337.938 6.994,337.891 6.947 C 337.844 6.900,337.667 6.986,337.498 7.139 C 336.979 7.608,336.762 7.762,336.458 7.878 C 336.298 7.939,336.167 8.067,336.167 8.161 C 336.167 8.256,335.977 8.333,335.745 8.333 C 335.513 8.333,335.280 8.446,335.227 8.583 C 335.174 8.721,334.952 8.833,334.732 8.833 C 334.489 8.833,334.333 8.931,334.333 9.083 C 334.333 9.222,334.185 9.333,334.000 9.333 C 333.817 9.333,333.667 9.442,333.667 9.574 C 333.667 9.726,333.542 9.790,333.325 9.748 C 333.137 9.712,332.944 9.785,332.896 9.910 C 332.848 10.034,332.618 10.185,332.384 10.243 C 332.151 10.302,331.854 10.455,331.725 10.584 C 331.596 10.714,331.368 10.772,331.218 10.715 C 331.044 10.648,330.986 10.676,331.058 10.793 C 331.122 10.895,331.023 11.023,330.836 11.083 C 330.651 11.141,330.500 11.297,330.500 11.428 C 330.500 11.572,330.333 11.667,330.078 11.667 C 329.846 11.667,329.613 11.779,329.560 11.917 C 329.508 12.054,329.293 12.167,329.083 12.167 C 328.874 12.167,328.659 12.279,328.606 12.417 C 328.554 12.554,328.396 12.667,328.255 12.667 C 328.115 12.667,328.000 12.734,328.000 12.815 C 328.000 12.897,327.813 13.011,327.583 13.068 C 327.354 13.126,327.167 13.247,327.167 13.337 C 327.167 13.426,327.022 13.500,326.845 13.500 C 326.668 13.500,326.421 13.603,326.296 13.728 C 326.170 13.853,325.903 14.008,325.701 14.073 C 325.499 14.137,325.333 14.259,325.333 14.345 C 325.333 14.430,325.218 14.500,325.078 14.500 C 324.938 14.500,324.780 14.612,324.727 14.750 C 324.674 14.888,324.452 15.000,324.232 15.000 C 323.989 15.000,323.833 15.097,323.833 15.250 C 323.833 15.395,323.682 15.500,323.471 15.500 C 323.272 15.500,322.981 15.617,322.823 15.759 C 322.666 15.901,322.384 16.029,322.197 16.044 C 322.010 16.058,321.893 16.129,321.938 16.201 C 321.983 16.274,321.911 16.333,321.778 16.333 C 321.645 16.333,321.492 16.446,321.440 16.583 C 321.387 16.721,321.189 16.833,321.000 16.833 C 320.811 16.833,320.613 16.946,320.560 17.083 C 320.508 17.221,320.283 17.333,320.060 17.333 C 319.838 17.333,319.613 17.446,319.560 17.583 C 319.508 17.721,319.325 17.833,319.154 17.833 C 318.947 17.833,318.876 17.916,318.940 18.083 C 319.010 18.266,318.919 18.333,318.601 18.333 C 318.326 18.333,318.167 18.425,318.167 18.583 C 318.167 18.721,318.092 18.833,318.000 18.833 C 317.908 18.833,317.533 19.133,317.167 19.500 C 316.800 19.867,316.425 20.167,316.333 20.167 C 316.242 20.167,316.167 20.245,316.167 20.341 C 316.167 20.437,315.960 20.707,315.708 20.941 C 315.456 21.174,315.250 21.436,315.250 21.522 C 315.250 21.608,315.166 21.732,315.064 21.798 C 314.962 21.863,314.825 22.087,314.760 22.294 C 314.696 22.502,314.579 22.632,314.502 22.584 C 314.424 22.536,314.311 22.723,314.250 22.999 C 314.190 23.274,314.071 23.500,313.987 23.500 C 313.902 23.500,313.833 23.652,313.833 23.839 C 313.833 24.025,313.721 24.220,313.583 24.273 C 313.421 24.335,313.333 24.594,313.333 25.013 C 313.333 25.516,313.279 25.635,313.083 25.560 C 312.884 25.484,312.833 25.617,312.833 26.218 C 312.833 26.673,312.751 27.000,312.625 27.042 C 312.460 27.097,312.407 30.913,312.373 45.222 L 312.329 63.333 313.081 63.333 C 313.495 63.333,313.833 63.260,313.833 63.170 C 313.833 63.080,314.021 62.959,314.250 62.902 C 314.479 62.844,314.667 62.730,314.667 62.649 C 314.667 62.567,314.779 62.500,314.917 62.500 C 315.054 62.500,315.167 62.387,315.167 62.250 C 315.167 62.083,315.333 62.000,315.667 62.000 C 316.000 62.000,316.167 61.917,316.167 61.750 C 316.167 61.611,316.315 61.500,316.500 61.500 C 316.847 61.500,317.500 60.956,317.500 60.667 C 317.500 60.575,317.717 60.500,317.982 60.500 C 318.257 60.500,318.506 60.393,318.560 60.250 C 318.613 60.112,318.846 60.000,319.078 60.000 C 319.310 60.000,319.500 59.933,319.500 59.851 C 319.500 59.770,319.688 59.656,319.917 59.598 C 320.146 59.541,320.333 59.420,320.333 59.330 C 320.333 59.240,320.446 59.167,320.583 59.167 C 320.721 59.167,320.833 59.054,320.833 58.917 C 320.833 58.750,321.000 58.667,321.333 58.667 C 321.667 58.667,321.833 58.583,321.833 58.417 C 321.833 58.198,322.150 58.087,322.428 58.208 C 322.481 58.231,322.597 58.119,322.687 57.958 C 322.776 57.798,322.959 57.667,323.092 57.667 C 323.368 57.667,323.415 57.404,323.167 57.250 C 323.060 57.184,323.000 54.946,323.000 51.083 C 323.000 47.221,323.060 44.982,323.167 44.917 C 323.272 44.851,323.333 42.745,323.333 39.147 C 323.333 36.030,323.395 33.518,323.469 33.564 C 323.544 33.611,323.623 33.334,323.645 32.949 C 323.712 31.742,323.745 31.587,323.958 31.450 C 324.073 31.377,324.167 31.058,324.167 30.742 C 324.167 30.342,324.243 30.167,324.417 30.167 C 324.573 30.167,324.667 30.009,324.667 29.745 C 324.667 29.513,324.779 29.280,324.917 29.227 C 325.054 29.174,325.167 29.035,325.167 28.917 C 325.167 28.799,325.279 28.659,325.417 28.606 C 325.554 28.554,325.667 28.396,325.667 28.255 C 325.667 28.115,325.967 27.708,326.333 27.353 C 326.700 26.997,327.000 26.622,327.000 26.520 C 327.000 26.417,327.225 26.333,327.500 26.333 C 327.833 26.333,328.000 26.250,328.000 26.083 C 328.000 25.946,328.112 25.833,328.250 25.833 C 328.387 25.833,328.500 25.721,328.500 25.583 C 328.500 25.428,328.657 25.333,328.917 25.333 C 329.146 25.333,329.333 25.258,329.333 25.167 C 329.333 25.075,329.437 25.000,329.563 25.000 C 329.689 25.000,329.886 24.887,330.000 24.750 C 330.114 24.613,330.348 24.500,330.520 24.500 C 330.693 24.500,330.833 24.387,330.833 24.250 C 330.833 24.083,331.000 24.000,331.333 24.000 C 331.656 24.000,331.833 23.915,331.833 23.761 C 331.833 23.624,332.029 23.500,332.292 23.469 C 332.549 23.440,332.732 23.326,332.708 23.208 C 332.685 23.094,332.779 23.000,332.917 23.000 C 333.054 23.000,333.167 22.917,333.167 22.816 C 333.167 22.714,333.283 22.676,333.425 22.730 C 333.574 22.787,333.641 22.759,333.582 22.665 C 333.526 22.574,333.627 22.500,333.806 22.500 C 333.985 22.500,334.174 22.388,334.227 22.250 C 334.280 22.113,334.517 22.000,334.755 22.000 C 335.003 22.000,335.142 21.929,335.082 21.831 C 335.024 21.738,335.205 21.617,335.489 21.561 C 335.770 21.504,336.000 21.393,336.000 21.312 C 336.000 21.232,336.104 21.167,336.232 21.167 C 336.360 21.167,336.508 21.054,336.560 20.917 C 336.613 20.779,336.811 20.667,337.000 20.667 C 337.189 20.667,337.387 20.554,337.440 20.417 C 337.494 20.274,337.743 20.167,338.018 20.167 C 338.310 20.167,338.484 20.086,338.458 19.962 C 338.435 19.850,338.590 19.732,338.802 19.699 C 339.014 19.667,339.228 19.534,339.278 19.404 C 339.328 19.273,339.467 19.167,339.587 19.167 C 339.707 19.167,339.834 19.080,339.870 18.975 C 339.905 18.869,340.105 18.770,340.313 18.755 C 340.522 18.739,340.747 18.640,340.812 18.534 C 340.878 18.428,341.115 18.311,341.341 18.273 C 341.566 18.235,341.731 18.121,341.708 18.019 C 341.685 17.917,341.854 17.833,342.083 17.833 C 342.343 17.833,342.500 17.739,342.500 17.583 C 342.500 17.444,342.648 17.333,342.833 17.333 C 343.019 17.333,343.167 17.222,343.167 17.083 C 343.167 16.917,343.333 16.833,343.667 16.833 C 344.000 16.833,344.167 16.750,344.167 16.583 C 344.167 16.427,344.325 16.333,344.589 16.333 C 344.821 16.333,345.054 16.221,345.106 16.083 C 345.159 15.946,345.326 15.833,345.478 15.833 C 345.629 15.833,345.956 15.646,346.203 15.417 C 346.450 15.188,346.802 15.000,346.984 15.000 C 347.167 15.000,347.382 14.884,347.461 14.742 C 347.541 14.600,347.767 14.472,347.965 14.457 C 348.163 14.442,348.362 14.333,348.407 14.215 C 348.452 14.097,348.609 14.000,348.755 14.000 C 348.900 14.000,348.973 13.924,348.915 13.831 C 348.858 13.738,349.038 13.617,349.322 13.561 C 349.603 13.504,349.833 13.355,349.833 13.229 C 349.833 13.086,350.020 13.000,350.333 13.000 C 350.608 13.000,350.833 12.928,350.833 12.841 C 350.833 12.753,351.115 12.630,351.458 12.567 C 351.802 12.504,352.132 12.376,352.192 12.283 C 352.350 12.040,357.884 12.069,357.966 12.313 C 358.000 12.416,358.241 12.500,358.502 12.500 C 358.763 12.500,359.089 12.612,359.226 12.750 C 359.364 12.887,359.669 13.000,359.905 13.000 C 360.175 13.000,360.333 13.093,360.333 13.250 C 360.333 13.467,360.762 13.595,361.221 13.516 C 361.296 13.502,361.310 13.569,361.252 13.664 C 361.193 13.758,361.282 13.887,361.448 13.950 C 361.614 14.013,361.849 14.163,361.970 14.282 C 362.091 14.402,362.288 14.500,362.408 14.500 C 362.528 14.500,362.719 14.612,362.833 14.750 C 362.947 14.887,363.144 15.000,363.269 15.000 C 363.395 15.000,363.692 15.169,363.929 15.375 C 364.166 15.581,364.429 15.759,364.513 15.771 C 364.598 15.782,364.779 15.801,364.917 15.813 C 365.054 15.824,365.167 15.946,365.167 16.083 C 365.167 16.239,365.324 16.333,365.583 16.333 C 365.843 16.333,366.000 16.428,366.000 16.583 C 366.000 16.750,366.167 16.833,366.500 16.833 C 366.833 16.833,367.000 16.917,367.000 17.083 C 367.000 17.221,367.113 17.333,367.250 17.333 C 367.387 17.333,367.500 17.446,367.500 17.583 C 367.500 17.721,367.556 17.824,367.625 17.814 C 368.085 17.741,368.500 17.869,368.500 18.083 C 368.500 18.240,368.658 18.333,368.922 18.333 C 369.154 18.333,369.387 18.445,369.439 18.582 C 369.492 18.719,369.602 18.790,369.684 18.739 C 369.766 18.688,369.833 18.726,369.833 18.822 C 369.833 18.918,370.132 19.044,370.497 19.102 C 370.862 19.161,371.246 19.311,371.351 19.437 C 371.605 19.744,372.167 19.730,372.167 19.417 C 372.167 19.279,372.253 19.167,372.358 19.167 C 372.464 19.167,374.006 17.710,375.785 15.930 C 377.564 14.150,379.259 12.496,379.552 12.254 C 379.844 12.012,379.990 11.860,379.875 11.917 C 379.620 12.043,379.598 11.636,379.846 11.387 C 379.974 11.259,379.909 11.230,379.619 11.286 C 379.302 11.346,379.191 11.279,379.113 10.981 C 379.058 10.770,378.963 10.648,378.901 10.710 C 378.740 10.871,378.139 10.513,378.255 10.325 C 378.309 10.238,378.169 10.167,377.944 10.167 C 377.720 10.167,377.492 10.053,377.439 9.915 C 377.386 9.777,377.284 9.673,377.213 9.685 C 376.906 9.735,376.653 9.657,376.729 9.535 C 376.774 9.462,376.652 9.391,376.458 9.376 C 376.264 9.361,376.041 9.233,375.961 9.091 C 375.882 8.949,375.633 8.833,375.408 8.833 C 375.156 8.833,375.000 8.738,375.000 8.583 C 375.000 8.428,374.843 8.333,374.583 8.333 C 374.324 8.333,374.167 8.239,374.167 8.083 C 374.167 7.946,374.063 7.833,373.937 7.833 C 373.811 7.833,373.614 7.721,373.500 7.583 C 373.386 7.446,373.160 7.333,372.997 7.333 C 372.835 7.333,372.659 7.221,372.606 7.083 C 372.554 6.946,372.321 6.833,372.089 6.833 C 371.857 6.833,371.667 6.766,371.667 6.685 C 371.667 6.603,371.479 6.489,371.250 6.432 C 371.021 6.374,370.833 6.253,370.833 6.163 C 370.833 6.074,370.729 6.000,370.601 6.000 C 370.473 6.000,370.326 5.887,370.273 5.750 C 370.220 5.612,369.987 5.500,369.755 5.500 C 369.491 5.500,369.333 5.406,369.333 5.250 C 369.333 5.083,369.167 5.000,368.833 5.000 C 368.500 5.000,368.333 4.917,368.333 4.750 C 368.333 4.612,368.221 4.500,368.083 4.500 C 367.946 4.500,367.833 4.425,367.833 4.333 C 367.833 4.242,367.777 4.175,367.708 4.185 C 367.421 4.226,366.844 3.950,366.930 3.812 C 366.980 3.730,366.792 3.617,366.511 3.561 C 366.230 3.504,366.000 3.393,366.000 3.313 C 366.000 3.232,365.775 3.167,365.500 3.167 C 365.167 3.167,365.000 3.083,365.000 2.917 C 365.000 2.779,364.887 2.667,364.750 2.667 C 364.613 2.667,364.500 2.554,364.500 2.417 C 364.500 2.279,364.444 2.176,364.375 2.186 C 363.971 2.250,363.667 2.134,363.667 1.917 C 363.667 1.752,363.502 1.667,363.184 1.667 C 362.910 1.667,362.661 1.559,362.606 1.417 C 362.554 1.279,362.321 1.167,362.089 1.167 C 361.848 1.167,361.667 1.071,361.667 0.944 C 361.667 0.822,361.562 0.722,361.435 0.722 C 361.308 0.722,360.914 0.578,360.560 0.403 C 359.910 0.080,351.081 -0.192,350.787 0.102 M356.010 24.262 C 356.117 24.391,356.276 24.452,356.363 24.398 C 356.557 24.278,356.413 24.115,356.069 24.064 C 355.868 24.035,355.856 24.076,356.010 24.262 M352.667 33.780 C 352.667 34.062,352.554 34.386,352.417 34.500 C 352.279 34.614,352.166 34.830,352.166 34.979 C 352.165 35.128,352.053 35.465,351.916 35.727 C 351.779 35.990,351.667 36.266,351.667 36.342 C 351.667 36.417,351.580 36.689,351.475 36.947 C 351.210 37.595,350.351 39.975,350.162 40.584 C 350.077 40.859,349.780 41.333,349.503 41.636 C 349.227 41.939,349.000 42.362,349.000 42.576 C 349.000 42.789,348.887 43.008,348.750 43.060 C 348.585 43.124,348.500 43.385,348.500 43.828 C 348.500 44.314,348.431 44.500,348.250 44.500 C 348.065 44.500,348.000 44.694,348.000 45.245 C 348.000 45.854,347.952 45.971,347.737 45.889 C 347.571 45.825,347.487 45.872,347.507 46.019 C 347.597 46.660,347.483 47.330,347.292 47.292 C 347.171 47.268,347.059 47.460,347.027 47.749 C 346.995 48.024,346.897 48.294,346.808 48.349 C 346.719 48.404,346.606 48.705,346.558 49.016 C 346.509 49.328,346.402 49.608,346.318 49.639 C 346.235 49.669,346.164 49.969,346.161 50.306 C 346.158 50.642,346.046 51.062,345.911 51.240 C 345.777 51.418,345.667 51.774,345.667 52.032 C 345.667 52.306,345.576 52.500,345.449 52.500 C 345.311 52.500,345.217 52.758,345.190 53.207 C 345.166 53.613,345.046 53.971,344.908 54.048 C 344.770 54.125,344.667 54.430,344.667 54.758 C 344.667 55.158,344.591 55.333,344.417 55.333 C 344.231 55.333,344.167 55.528,344.167 56.083 C 344.167 56.639,344.102 56.833,343.917 56.833 C 343.744 56.833,343.667 57.007,343.667 57.396 C 343.667 57.706,343.555 58.052,343.419 58.165 C 343.282 58.278,343.203 58.424,343.243 58.489 C 343.283 58.554,343.208 58.817,343.075 59.073 C 342.942 59.329,342.833 59.792,342.833 60.102 C 342.833 60.500,342.757 60.667,342.576 60.667 C 342.364 60.667,342.327 60.865,342.367 61.776 C 342.423 63.022,342.595 63.161,343.625 62.793 C 344.041 62.645,344.213 62.646,344.367 62.800 C 344.667 63.100,345.346 63.060,345.227 62.749 C 345.131 62.500,345.361 61.480,346.089 58.917 C 346.497 57.484,347.640 53.308,348.258 51.000 C 348.466 50.221,348.897 48.608,349.216 47.417 C 350.320 43.285,350.922 41.107,351.932 37.583 C 352.885 34.264,353.026 33.626,352.850 33.450 C 352.717 33.317,352.667 33.407,352.667 33.780 M321.637 67.434 C 321.514 67.558,320.984 67.676,320.457 67.698 C 319.809 67.725,319.500 67.807,319.500 67.952 C 319.500 68.071,319.311 68.167,319.078 68.167 C 318.846 68.167,318.613 68.279,318.560 68.417 C 318.508 68.554,318.285 68.667,318.066 68.667 C 317.822 68.667,317.667 68.764,317.667 68.917 C 317.667 69.083,317.500 69.167,317.167 69.167 C 316.833 69.167,316.667 69.250,316.667 69.417 C 316.667 69.571,316.510 69.667,316.258 69.667 C 316.034 69.667,315.773 69.798,315.680 69.958 C 315.587 70.119,315.508 70.196,315.505 70.131 C 315.497 69.952,314.333 71.152,314.333 71.339 C 314.333 71.427,314.221 71.500,314.083 71.500 C 313.946 71.500,313.833 71.579,313.833 71.677 C 313.833 71.774,313.740 71.797,313.625 71.728 C 313.483 71.642,313.489 71.692,313.645 71.884 C 313.770 72.038,313.833 72.315,313.785 72.499 C 313.716 72.765,313.780 72.833,314.099 72.833 C 314.331 72.833,314.482 72.921,314.458 73.042 C 314.435 73.158,314.615 73.273,314.866 73.302 C 315.177 73.338,315.287 73.427,315.223 73.594 C 315.155 73.770,315.267 73.833,315.649 73.833 C 316.015 73.833,316.167 73.912,316.167 74.103 C 316.167 74.302,316.278 74.351,316.593 74.291 C 316.932 74.226,317.000 74.265,316.926 74.480 C 316.850 74.699,316.876 74.694,317.063 74.453 C 317.256 74.206,317.309 74.197,317.388 74.401 C 317.439 74.535,317.409 74.682,317.320 74.727 C 317.231 74.772,317.254 74.787,317.371 74.762 C 317.488 74.736,317.561 74.591,317.534 74.439 C 317.507 74.287,317.600 74.118,317.742 74.063 C 317.884 74.009,318.000 73.906,318.000 73.835 C 318.000 73.691,321.528 70.120,323.148 68.625 C 323.719 68.098,324.088 67.664,323.968 67.661 C 323.829 67.658,323.862 67.571,324.059 67.422 C 324.332 67.215,324.224 67.189,323.114 67.199 C 322.301 67.207,321.782 67.289,321.637 67.434 " stroke="none" fill="#0491bb" fill-rule="evenodd"></path><path id="path3" d="M327.511 12.904 C 327.350 13.098,327.376 13.124,327.657 13.051 C 327.846 13.001,328.000 12.895,328.000 12.814 C 328.000 12.589,327.731 12.638,327.511 12.904 M324.333 14.778 C 324.333 14.900,324.400 15.000,324.482 15.000 C 324.564 15.000,324.669 14.900,324.716 14.778 C 324.763 14.656,324.696 14.556,324.567 14.556 C 324.439 14.556,324.333 14.656,324.333 14.778 M355.227 24.250 C 355.174 24.387,354.998 24.500,354.836 24.500 C 354.674 24.500,354.447 24.613,354.333 24.750 C 354.219 24.887,354.023 25.000,353.896 25.000 C 353.770 25.000,353.667 25.113,353.667 25.250 C 353.667 25.394,353.516 25.500,353.311 25.500 C 353.115 25.500,352.792 25.676,352.593 25.891 C 352.394 26.105,352.029 26.332,351.782 26.394 C 351.535 26.456,351.333 26.580,351.333 26.670 C 351.333 26.760,351.229 26.833,351.101 26.833 C 350.973 26.833,350.826 26.946,350.773 27.083 C 350.720 27.221,350.533 27.333,350.356 27.333 C 350.180 27.333,349.992 27.446,349.940 27.583 C 349.887 27.721,349.654 27.833,349.422 27.833 C 349.158 27.833,349.000 27.927,349.000 28.083 C 349.000 28.221,348.887 28.333,348.750 28.333 C 348.613 28.333,348.500 28.400,348.500 28.482 C 348.500 28.564,348.298 28.681,348.050 28.743 C 347.803 28.806,347.431 29.039,347.225 29.262 C 347.018 29.484,346.731 29.667,346.586 29.667 C 346.441 29.667,346.280 29.779,346.227 29.917 C 346.174 30.054,345.989 30.167,345.816 30.167 C 345.642 30.167,345.500 30.240,345.500 30.330 C 345.500 30.420,345.313 30.541,345.083 30.598 C 344.854 30.656,344.667 30.807,344.667 30.935 C 344.667 31.062,344.514 31.167,344.328 31.167 C 344.142 31.167,343.946 31.279,343.894 31.417 C 343.841 31.554,343.651 31.667,343.472 31.667 C 343.293 31.667,343.193 31.742,343.250 31.833 C 343.307 31.925,343.201 32.000,343.016 32.000 C 342.830 32.000,342.448 32.225,342.167 32.500 C 341.885 32.775,341.505 33.000,341.322 33.000 C 341.139 33.000,340.949 33.106,340.899 33.235 C 340.850 33.364,340.627 33.516,340.405 33.571 C 340.182 33.627,340.000 33.747,340.000 33.837 C 340.000 33.926,339.887 34.000,339.750 34.000 C 339.612 34.000,339.500 34.112,339.500 34.250 C 339.500 34.417,339.333 34.500,339.000 34.500 C 338.667 34.500,338.500 34.583,338.500 34.750 C 338.500 34.887,338.394 35.000,338.264 35.000 C 338.134 35.000,338.003 35.056,337.972 35.125 C 337.942 35.194,337.560 35.436,337.125 35.663 C 336.690 35.890,336.333 36.134,336.333 36.205 C 336.333 36.276,336.225 36.333,336.092 36.333 C 335.959 36.333,335.790 36.439,335.717 36.567 C 335.643 36.696,335.396 36.829,335.167 36.863 C 334.938 36.897,334.769 37.017,334.792 37.129 C 334.815 37.241,334.718 37.333,334.578 37.333 C 334.438 37.333,334.280 37.446,334.227 37.583 C 334.174 37.721,333.952 37.833,333.732 37.833 C 333.489 37.833,333.333 37.931,333.333 38.083 C 333.333 38.221,333.221 38.333,333.083 38.333 C 332.946 38.333,332.833 38.408,332.833 38.500 C 332.833 38.592,332.689 38.667,332.512 38.667 C 332.335 38.667,332.078 38.779,331.940 38.917 C 331.803 39.054,331.618 39.167,331.530 39.167 C 331.441 39.167,331.326 39.279,331.273 39.417 C 331.220 39.554,331.025 39.667,330.839 39.667 C 330.652 39.667,330.500 39.738,330.500 39.824 C 330.500 39.980,329.859 40.391,329.292 40.599 C 329.131 40.657,329.000 40.809,329.000 40.936 C 329.000 41.082,328.813 41.167,328.490 41.167 C 328.210 41.167,328.023 41.236,328.076 41.321 C 328.128 41.406,328.020 41.524,327.836 41.583 C 327.651 41.641,327.500 41.759,327.500 41.845 C 327.500 41.930,327.313 42.000,327.083 42.000 C 326.854 42.000,326.666 42.094,326.665 42.208 C 326.664 42.323,326.355 42.564,325.979 42.744 C 325.603 42.925,325.258 43.168,325.213 43.286 C 325.168 43.404,324.987 43.500,324.810 43.500 C 324.634 43.500,324.446 43.612,324.394 43.750 C 324.341 43.887,324.226 44.000,324.139 44.000 C 324.052 44.000,323.760 44.243,323.489 44.539 L 322.996 45.079 323.040 51.164 L 323.083 57.250 323.583 57.191 C 323.858 57.159,324.137 57.046,324.202 56.941 C 324.318 56.755,324.387 56.731,324.927 56.688 C 325.069 56.676,325.140 56.592,325.083 56.500 C 325.027 56.408,325.100 56.333,325.245 56.333 C 325.391 56.333,325.554 56.221,325.606 56.083 C 325.659 55.946,325.882 55.833,326.101 55.833 C 326.345 55.833,326.500 55.736,326.500 55.583 C 326.500 55.417,326.667 55.333,327.000 55.333 C 327.333 55.333,327.500 55.250,327.500 55.083 C 327.500 54.946,327.612 54.833,327.750 54.833 C 327.887 54.833,328.000 54.721,328.000 54.583 C 328.000 54.427,328.158 54.333,328.422 54.333 C 328.654 54.333,328.887 54.221,328.940 54.083 C 328.992 53.946,329.215 53.833,329.434 53.833 C 329.654 53.833,329.834 53.777,329.834 53.708 C 329.836 53.541,330.799 53.000,331.097 53.000 C 331.227 53.000,331.333 52.887,331.333 52.750 C 331.333 52.612,331.474 52.500,331.646 52.500 C 331.818 52.500,332.046 52.395,332.153 52.266 C 332.260 52.138,332.534 51.986,332.764 51.928 C 332.993 51.871,333.135 51.751,333.080 51.662 C 333.025 51.573,333.135 51.500,333.323 51.500 C 333.517 51.500,333.667 51.391,333.667 51.250 C 333.667 51.094,333.825 51.000,334.089 51.000 C 334.321 51.000,334.554 50.887,334.606 50.750 C 334.659 50.612,334.801 50.500,334.921 50.500 C 335.205 50.500,336.164 49.954,336.166 49.792 C 336.166 49.723,336.354 49.667,336.583 49.667 C 336.843 49.667,337.000 49.572,337.000 49.417 C 337.000 49.279,337.112 49.157,337.250 49.146 C 337.826 49.098,337.915 49.058,337.875 48.867 C 337.852 48.757,337.983 48.667,338.167 48.667 C 338.352 48.667,338.500 48.556,338.500 48.417 C 338.500 48.264,338.655 48.167,338.899 48.167 C 339.118 48.167,339.341 48.054,339.394 47.917 C 339.446 47.779,339.644 47.667,339.833 47.667 C 340.022 47.667,340.220 47.555,340.273 47.418 C 340.325 47.281,340.436 47.210,340.519 47.262 C 340.601 47.313,340.714 47.237,340.769 47.094 C 340.824 46.951,341.006 46.833,341.173 46.833 C 341.340 46.833,341.593 46.716,341.736 46.573 C 341.880 46.430,342.147 46.302,342.332 46.288 C 342.516 46.274,342.667 46.174,342.667 46.066 C 342.667 45.958,342.854 45.822,343.083 45.765 C 343.313 45.707,343.500 45.587,343.500 45.497 C 343.500 45.407,343.650 45.333,343.833 45.333 C 344.019 45.333,344.167 45.222,344.167 45.083 C 344.167 44.928,344.324 44.833,344.583 44.833 C 344.813 44.833,345.000 44.764,345.000 44.678 C 345.000 44.593,345.337 44.355,345.750 44.149 C 346.162 43.943,346.500 43.713,346.500 43.637 C 346.500 43.562,346.645 43.500,346.821 43.500 C 346.998 43.500,347.255 43.387,347.393 43.250 C 347.530 43.112,347.763 43.000,347.910 43.000 C 348.057 43.000,348.217 42.895,348.267 42.766 C 348.316 42.638,348.509 42.493,348.695 42.444 C 348.881 42.396,348.984 42.276,348.924 42.178 C 348.863 42.080,348.924 42.000,349.060 42.000 C 349.572 42.000,350.098 40.778,352.000 35.167 C 352.358 34.112,352.996 32.275,353.419 31.083 C 353.842 29.892,354.496 27.979,354.873 26.833 C 355.250 25.688,355.657 24.631,355.779 24.486 C 355.901 24.342,355.951 24.173,355.889 24.111 C 355.693 23.915,355.326 23.992,355.227 24.250 M312.542 26.787 C 312.427 26.828,312.339 27.024,312.346 27.222 C 312.356 27.470,312.390 27.505,312.455 27.333 C 312.507 27.196,312.630 27.031,312.728 26.967 C 312.955 26.820,312.818 26.688,312.542 26.787 M365.708 34.622 C 365.459 34.709,365.427 35.333,365.672 35.333 C 365.866 35.333,366.061 34.921,365.974 34.697 C 365.942 34.616,365.823 34.582,365.708 34.622 M365.000 36.240 C 365.000 36.727,365.257 36.938,365.399 36.569 C 365.570 36.123,365.511 35.833,365.250 35.833 C 365.096 35.833,365.000 35.990,365.000 36.240 M364.583 37.667 C 364.665 38.040,364.626 38.193,364.430 38.268 C 364.272 38.328,364.167 38.566,364.167 38.861 C 364.167 39.147,364.237 39.310,364.333 39.250 C 364.425 39.193,364.500 38.973,364.500 38.761 C 364.500 38.548,364.613 38.281,364.750 38.167 C 365.088 37.886,365.078 37.167,364.737 37.167 C 364.531 37.167,364.497 37.276,364.583 37.667 M363.667 40.161 C 363.667 40.496,363.736 40.630,363.881 40.574 C 364.193 40.454,364.223 39.667,363.915 39.667 C 363.751 39.667,363.667 39.834,363.667 40.161 " stroke="none" fill="#045474" fill-rule="evenodd"></path><path id="path4" d="M366.663 32.502 C 366.473 32.620,366.463 32.697,366.621 32.854 C 366.778 33.012,366.846 32.994,366.932 32.771 C 367.071 32.408,366.974 32.310,366.663 32.502 M386.500 37.583 C 386.500 37.802,386.192 37.918,385.787 37.852 C 385.716 37.840,385.614 37.943,385.561 38.081 C 385.508 38.219,385.397 38.290,385.315 38.238 C 385.232 38.187,385.119 38.263,385.064 38.406 C 385.009 38.549,384.785 38.667,384.566 38.667 C 384.322 38.667,384.167 38.764,384.167 38.917 C 384.167 39.131,383.751 39.259,383.292 39.186 C 383.223 39.176,383.167 39.279,383.167 39.417 C 383.167 39.573,383.009 39.667,382.745 39.667 C 382.513 39.667,382.280 39.779,382.227 39.917 C 382.174 40.054,382.027 40.167,381.899 40.167 C 381.771 40.167,381.667 40.279,381.667 40.417 C 381.667 40.572,381.509 40.667,381.250 40.667 C 380.991 40.667,380.833 40.761,380.833 40.917 C 380.833 41.054,380.686 41.167,380.505 41.167 C 380.325 41.167,379.919 41.311,379.604 41.488 C 379.290 41.665,378.987 41.765,378.933 41.710 C 378.878 41.656,378.833 41.699,378.833 41.806 C 378.833 41.913,378.721 42.000,378.583 42.000 C 378.446 42.000,378.333 42.112,378.333 42.250 C 378.333 42.406,378.176 42.500,377.917 42.500 C 377.657 42.500,377.500 42.594,377.500 42.750 C 377.500 42.917,377.333 43.000,377.000 43.000 C 376.667 43.000,376.500 43.083,376.500 43.250 C 376.500 43.469,376.192 43.585,375.787 43.518 C 375.716 43.506,375.614 43.610,375.561 43.748 C 375.508 43.887,375.360 44.000,375.232 44.000 C 375.104 44.000,375.000 44.070,375.000 44.155 C 375.000 44.241,374.831 44.364,374.625 44.428 C 374.419 44.492,374.209 44.608,374.159 44.685 C 374.110 44.762,373.889 44.852,373.668 44.886 C 373.448 44.920,373.239 45.034,373.203 45.140 C 373.168 45.246,372.953 45.333,372.726 45.333 C 372.499 45.333,372.359 45.406,372.414 45.495 C 372.469 45.584,372.324 45.705,372.091 45.763 C 371.859 45.821,371.711 45.937,371.762 46.020 C 371.813 46.103,371.625 46.217,371.344 46.273 C 371.063 46.329,370.833 46.478,370.833 46.604 C 370.833 46.738,370.658 46.833,370.411 46.833 C 370.179 46.833,369.946 46.946,369.894 47.083 C 369.841 47.221,369.661 47.333,369.494 47.333 C 369.327 47.333,369.082 47.442,368.948 47.575 C 368.815 47.709,368.660 47.771,368.603 47.714 C 368.546 47.658,368.500 47.699,368.500 47.806 C 368.500 47.912,368.444 47.992,368.375 47.982 C 368.061 47.937,367.500 48.228,367.500 48.436 C 367.500 48.581,367.315 48.667,367.000 48.667 C 366.667 48.667,366.500 48.750,366.500 48.917 C 366.500 49.134,366.196 49.250,365.792 49.186 C 365.723 49.176,365.667 49.246,365.667 49.342 C 365.667 49.438,365.442 49.596,365.167 49.692 C 364.892 49.788,364.667 49.934,364.667 50.016 C 364.667 50.099,364.554 50.167,364.417 50.167 C 364.279 50.167,364.167 50.279,364.167 50.417 C 364.167 50.571,364.010 50.667,363.760 50.667 C 363.536 50.667,363.307 50.742,363.250 50.833 C 363.193 50.925,362.999 51.000,362.818 51.000 C 362.637 51.000,362.448 51.108,362.398 51.240 C 362.347 51.372,362.087 51.528,361.819 51.586 C 361.552 51.645,361.333 51.762,361.333 51.847 C 361.333 51.931,361.221 52.000,361.083 52.000 C 360.946 52.000,360.833 52.117,360.833 52.261 C 360.833 52.454,360.694 52.508,360.292 52.469 C 359.793 52.421,359.752 52.373,359.781 51.865 C 359.801 51.504,359.743 51.335,359.614 51.378 C 359.302 51.480,359.269 52.319,359.572 52.435 C 360.079 52.630,359.878 53.036,359.333 52.917 C 358.884 52.818,358.833 52.848,358.833 53.216 C 358.833 53.442,358.721 53.719,358.583 53.833 C 358.446 53.947,358.333 54.163,358.332 54.312 C 358.332 54.461,358.219 54.798,358.082 55.061 C 357.945 55.323,357.833 55.612,357.833 55.702 C 357.833 55.792,357.731 56.103,357.607 56.391 C 357.101 57.564,356.947 57.967,356.580 59.084 C 356.369 59.727,356.106 60.477,355.994 60.751 C 355.662 61.571,355.568 61.823,354.755 64.083 C 354.326 65.275,353.888 66.475,353.782 66.750 C 353.516 67.441,353.517 68.360,353.784 68.138 C 353.895 68.046,354.082 68.030,354.201 68.101 C 354.361 68.197,354.358 68.158,354.188 67.949 C 353.990 67.705,353.997 67.667,354.235 67.667 C 354.386 67.667,354.554 67.554,354.606 67.417 C 354.659 67.279,354.882 67.167,355.101 67.167 C 355.337 67.167,355.500 67.069,355.500 66.927 C 355.500 66.788,355.644 66.698,355.844 66.713 C 356.146 66.736,356.156 66.762,355.924 66.932 C 355.698 67.097,355.722 67.125,356.082 67.125 C 356.315 67.125,356.495 67.041,356.483 66.938 C 356.425 66.448,356.519 66.146,356.708 66.215 C 356.823 66.257,356.898 66.377,356.874 66.481 C 356.844 66.616,356.925 66.613,357.155 66.468 C 357.333 66.357,357.441 66.207,357.396 66.133 C 357.254 65.904,357.514 65.639,357.723 65.799 C 357.830 65.880,358.104 65.891,358.333 65.823 C 358.563 65.756,358.656 65.692,358.542 65.683 C 358.201 65.656,358.305 65.333,358.655 65.333 C 358.832 65.333,359.097 65.212,359.246 65.064 C 359.405 64.905,359.802 64.791,360.216 64.786 C 360.601 64.782,360.748 64.748,360.542 64.711 C 360.084 64.629,360.042 64.333,360.488 64.333 C 360.665 64.333,360.922 64.221,361.060 64.083 C 361.197 63.946,361.510 63.833,361.756 63.833 C 362.084 63.833,362.177 63.767,362.106 63.583 C 362.020 63.357,362.492 63.223,363.048 63.316 C 363.326 63.362,363.837 62.974,363.729 62.799 C 363.659 62.685,363.692 62.663,363.816 62.739 C 363.935 62.813,364.180 62.688,364.417 62.432 C 364.764 62.058,365.228 61.899,365.721 61.984 C 365.796 61.998,365.814 61.937,365.761 61.851 C 365.646 61.665,366.639 61.130,366.854 61.263 C 366.934 61.312,367.000 61.274,367.000 61.177 C 367.000 61.079,367.184 61.000,367.408 61.000 C 367.633 61.000,367.877 60.893,367.950 60.762 C 368.117 60.463,369.592 59.819,369.761 59.971 C 369.830 60.033,369.843 59.961,369.789 59.811 C 369.713 59.599,369.770 59.558,370.041 59.629 C 370.315 59.701,370.367 59.661,370.283 59.443 C 370.186 59.189,370.515 59.061,371.046 59.148 C 371.118 59.160,371.219 59.057,371.272 58.918 C 371.326 58.780,371.441 58.667,371.530 58.667 C 371.618 58.667,371.803 58.554,371.940 58.417 C 372.078 58.279,372.375 58.167,372.600 58.167 C 372.826 58.167,373.054 58.054,373.106 57.917 C 373.161 57.775,373.409 57.667,373.679 57.667 C 374.035 57.667,374.132 57.603,374.060 57.417 C 373.994 57.243,374.072 57.167,374.316 57.167 C 374.509 57.167,374.667 57.110,374.667 57.041 C 374.667 56.971,374.910 56.815,375.208 56.694 C 376.882 56.011,377.578 55.651,377.538 55.489 C 377.512 55.390,377.566 55.354,377.656 55.410 C 377.747 55.466,377.974 55.359,378.161 55.173 C 378.347 54.986,378.688 54.833,378.917 54.833 C 379.176 54.833,379.333 54.739,379.333 54.583 C 379.333 54.417,379.500 54.333,379.833 54.333 C 380.167 54.333,380.333 54.250,380.333 54.083 C 380.333 53.942,380.483 53.833,380.679 53.833 C 380.868 53.833,381.137 53.720,381.275 53.582 C 381.414 53.443,381.601 53.376,381.691 53.432 C 381.782 53.488,381.944 53.419,382.053 53.278 C 382.161 53.138,382.438 52.998,382.667 52.966 C 382.896 52.935,383.065 52.817,383.042 52.704 C 383.002 52.510,383.315 52.424,383.808 52.491 C 383.932 52.508,383.984 52.442,383.923 52.344 C 383.863 52.246,383.997 52.096,384.224 52.010 C 384.450 51.924,384.683 51.774,384.744 51.677 C 384.804 51.580,384.999 51.500,385.177 51.500 C 385.354 51.500,385.500 51.387,385.500 51.250 C 385.500 51.103,385.654 50.998,385.875 50.996 C 386.081 50.994,386.438 50.849,386.667 50.673 L 387.083 50.353 387.133 44.385 C 387.161 41.102,387.139 38.173,387.084 37.875 C 386.985 37.334,386.500 37.092,386.500 37.583 M360.833 48.167 C 360.833 48.442,360.900 48.667,360.981 48.667 C 361.158 48.667,361.352 47.999,361.232 47.804 C 361.045 47.502,360.833 47.694,360.833 48.167 M360.333 49.308 C 360.333 49.697,360.394 49.799,360.583 49.727 C 360.721 49.674,360.833 49.536,360.833 49.419 C 360.833 49.303,360.721 49.114,360.583 49.000 C 360.370 48.823,360.333 48.869,360.333 49.308 M359.833 50.486 C 359.833 50.841,359.914 51.000,360.094 51.000 C 360.279 51.000,360.340 50.870,360.303 50.555 C 360.226 49.906,359.833 49.848,359.833 50.486 M344.757 63.988 C 344.643 64.173,344.906 64.372,345.060 64.218 C 345.219 64.059,345.189 63.833,345.010 63.833 C 344.924 63.833,344.810 63.903,344.757 63.988 M397.379 66.825 C 397.393 67.015,397.482 67.145,397.577 67.113 C 397.814 67.034,397.795 66.626,397.551 66.545 C 397.435 66.506,397.363 66.623,397.379 66.825 M396.853 68.292 C 396.832 68.690,397.068 68.795,397.266 68.474 C 397.337 68.360,397.312 68.327,397.205 68.393 C 397.106 68.454,396.991 68.372,396.949 68.210 C 396.890 67.987,396.867 68.006,396.853 68.292 M396.162 70.007 C 395.947 70.142,395.948 70.163,396.167 70.176 C 396.335 70.185,396.308 70.237,396.083 70.333 C 395.792 70.459,395.787 70.478,396.047 70.488 C 396.210 70.495,396.388 70.384,396.442 70.243 C 396.572 69.905,396.465 69.815,396.162 70.007 M395.562 70.947 C 395.622 71.055,395.596 71.191,395.503 71.248 C 395.410 71.306,395.342 71.517,395.353 71.718 C 395.371 72.057,395.378 72.059,395.455 71.750 C 395.501 71.567,395.623 71.364,395.726 71.299 C 395.860 71.214,395.848 71.119,395.682 70.965 C 395.539 70.831,395.493 70.824,395.562 70.947 M313.333 72.157 C 313.333 72.426,313.393 72.684,313.465 72.728 C 313.538 72.773,313.567 72.553,313.530 72.238 C 313.448 71.538,313.333 71.490,313.333 72.157 M374.266 72.141 C 374.208 72.234,374.242 72.360,374.342 72.422 C 374.598 72.580,374.763 72.363,374.549 72.149 C 374.430 72.030,374.336 72.027,374.266 72.141 M389.773 76.282 C 389.586 76.470,389.659 76.667,389.917 76.667 C 390.054 76.667,390.167 76.596,390.167 76.510 C 390.167 76.300,389.906 76.149,389.773 76.282 M383.013 80.292 C 383.022 80.495,383.054 80.515,383.117 80.356 C 383.185 80.186,383.238 80.179,383.330 80.328 C 383.420 80.473,383.482 80.455,383.555 80.264 C 383.626 80.078,383.559 80.000,383.328 80.000 C 383.122 80.000,383.005 80.108,383.013 80.292 M377.358 83.492 C 377.395 83.602,377.479 83.686,377.546 83.679 C 377.745 83.659,377.707 83.430,377.492 83.358 C 377.382 83.322,377.322 83.382,377.358 83.492 M365.013 90.792 C 365.021 90.968,365.060 91.000,365.111 90.874 C 365.157 90.759,365.264 90.707,365.348 90.759 C 365.431 90.811,365.500 90.774,365.500 90.677 C 365.500 90.579,365.387 90.500,365.250 90.500 C 365.113 90.500,365.006 90.631,365.013 90.792 " stroke="none" fill="#045404" fill-rule="evenodd"></path></g></svg>